# xmcd CD database file
#
# Track frame offsets:
#	150
#	18976
#	38533
#	57309
#
# Disc length: 1022 seconds
#
# Revision: 1
# Processed by: cddbd v1.5.2PL0 Copyright (c) Steve Scherf et al.
# Submitted via: CDex 1.70beta3
#
DISCID=2603fc04
DTITLE=玉川茉莉(CV:中島愛) - If
DYEAR=2011
DGENRE=Anime
TTITLE0=If
TTITLE1=Ready Go!
TTITLE2=If (Inst.)
TTITLE3=Ready Go! (Inst.)
EXTD=YEAR: 2011
EXTT0=
EXTT1=
EXTT2=
EXTT3=
PLAYORDER=
